<svg width="175" height="24" viewBox="0 0 175 24" fill="none" xmlns="http://www.w3.org/2000/svg">
<path d="M6.625 23L0.25 0.25H4.09375C4.4375 1.58333 4.9375 3.51562 5.59375 6.04688C6.26042 8.56771 6.85417 10.8542 7.375 12.9062C7.90625 14.9479 8.39062 16.8958 8.82812 18.75C9.33854 16.875 9.89583 14.9219 10.5 12.8906C11.1146 10.849 11.8177 8.55729 12.6094 6.01562C13.401 3.47396 13.9948 1.55208 14.3906 0.25H17.8906L22.2344 14.2188L23.5469 18.7969C23.9635 16.9427 24.4271 14.9844 24.9375 12.9219C25.4479 10.849 26.0156 8.56771 26.6406 6.07812C27.2656 3.57812 27.75 1.63542 28.0938 0.25H31.8125L25.5938 23H21.4219L16.0469 5.17188L10.7344 23H6.625ZM42.0625 23.3594C40.7188 23.3594 39.5052 23.1406 38.4219 22.7031C37.349 22.2656 36.4688 21.6667 35.7812 20.9062C35.1042 20.1458 34.5833 19.2656 34.2188 18.2656C33.8646 17.2552 33.6875 16.1615 33.6875 14.9844C33.6875 13.3802 34 11.9531 34.625 10.7031C35.25 9.44271 36.2031 8.4375 37.4844 7.6875C38.776 6.9375 40.3073 6.5625 42.0781 6.5625C43.4323 6.5625 44.6406 6.77604 45.7031 7.20312C46.7656 7.63021 47.6302 8.22917 48.2969 9C48.9635 9.76042 49.4688 10.651 49.8125 11.6719C50.1667 12.6823 50.3438 13.7969 50.3438 15.0156C50.3438 16.1719 50.1615 17.25 49.7969 18.25C49.4427 19.25 48.9271 20.1354 48.25 20.9062C47.5833 21.6667 46.7135 22.2656 45.6406 22.7031C44.5781 23.1406 43.3854 23.3594 42.0625 23.3594ZM42.0469 20.5156C43.5885 20.5156 44.7448 20 45.5156 18.9688C46.2969 17.9375 46.6875 16.6042 46.6875 14.9688C46.6875 13.3125 46.2917 11.9688 45.5 10.9375C44.7083 9.90625 43.5521 9.39062 42.0312 9.39062C40.5104 9.39062 39.349 9.90625 38.5469 10.9375C37.7448 11.9688 37.3438 13.3125 37.3438 14.9688C37.3438 16.6042 37.7396 17.9375 38.5312 18.9688C39.3229 20 40.4948 20.5156 42.0469 20.5156ZM54.5938 23V10.9688C54.5938 10.5312 54.5729 9.97917 54.5312 9.3125C54.4896 8.64583 54.4479 8.08854 54.4062 7.64062L54.3438 6.96875H58.0625V9.23438C59.2188 7.45312 60.5833 6.5625 62.1562 6.5625C62.6771 6.5625 63.2188 6.64062 63.7812 6.79688V9.875C63.1771 9.66667 62.5521 9.5625 61.9062 9.5625C60.7708 9.5625 59.8542 9.94792 59.1562 10.7188C58.4583 11.4792 58.1094 12.5677 58.1094 13.9844V23H54.5938ZM66.875 23V0.046875H70.375V13.6094L76.6094 6.96875H81.4219L73.5938 14.6562L81.9531 23H77.2969L70.375 15.8125V23H66.875Z" fill="#9FA19C"/>
<path d="M88.6562 9.6875H92.0469C92.5781 9.6875 93.0677 9.64062 93.5156 9.54688C93.9635 9.44271 94.3854 9.27604 94.7812 9.04688C95.1875 8.81771 95.5052 8.49479 95.7344 8.07812C95.9635 7.66146 96.0781 7.16146 96.0781 6.57812C96.0781 5.45312 95.6875 4.6875 94.9062 4.28125C94.125 3.86458 92.8958 3.65625 91.2188 3.65625H88.6562V9.6875ZM88.7031 19.6094H92.2812C95.4792 19.6094 97.0781 18.5417 97.0781 16.4062C97.0781 15.0729 96.7188 14.1562 96 13.6562C95.2917 13.1562 94.0208 12.9062 92.1875 12.9062H88.7031V19.6094ZM84.6875 23V0.25H90.9844C91.6406 0.25 92.2292 0.265625 92.75 0.296875C93.2708 0.317708 93.8646 0.375 94.5312 0.46875C95.2083 0.552083 95.8021 0.677083 96.3125 0.84375C96.8229 1 97.3385 1.22396 97.8594 1.51562C98.3802 1.80729 98.8073 2.15625 99.1406 2.5625C99.4844 2.95833 99.7604 3.45833 99.9688 4.0625C100.188 4.65625 100.297 5.32812 100.297 6.07812C100.297 8.32812 99.2917 9.94792 97.2812 10.9375C98.6354 11.3021 99.651 11.9896 100.328 13C101.005 14 101.344 15.1927 101.344 16.5781C101.344 17.4427 101.172 18.2552 100.828 19.0156C100.484 19.7656 99.9792 20.4427 99.3125 21.0469C98.6458 21.651 97.7656 22.1302 96.6719 22.4844C95.5885 22.8281 94.3594 23 92.9844 23H84.6875ZM108.922 13.0625H116.891C116.703 11.9271 116.281 11.0573 115.625 10.4531C114.969 9.84896 114.167 9.54688 113.219 9.54688C112.104 9.54688 111.172 9.85938 110.422 10.4844C109.672 11.1094 109.172 11.9688 108.922 13.0625ZM113.5 23.3594C110.802 23.3594 108.672 22.5885 107.109 21.0469C105.557 19.5052 104.781 17.4896 104.781 15C104.781 13.875 104.969 12.8073 105.344 11.7969C105.719 10.7865 106.245 9.89062 106.922 9.10938C107.609 8.32812 108.474 7.70833 109.516 7.25C110.568 6.79167 111.729 6.5625 113 6.5625C114.271 6.5625 115.38 6.78125 116.328 7.21875C117.276 7.65625 118.026 8.27083 118.578 9.0625C119.13 9.84375 119.536 10.724 119.797 11.7031C120.068 12.6823 120.203 13.7656 120.203 14.9531C120.203 15.2552 120.177 15.4844 120.125 15.6406H108.875C108.938 17.2031 109.411 18.3594 110.297 19.1094C111.193 19.8594 112.38 20.2344 113.859 20.2344C115.589 20.2344 117.276 19.6615 118.922 18.5156L119.969 21.3281C118.958 22.026 117.938 22.5417 116.906 22.875C115.885 23.1979 114.75 23.3594 113.5 23.3594ZM124.406 23V13.0781C124.406 11.9427 124.38 10.8698 124.328 9.85938C124.276 8.83854 124.224 8.10417 124.172 7.65625L124.094 6.96875H128.203V9.10938C128.755 8.27604 129.49 7.64583 130.406 7.21875C131.333 6.78125 132.229 6.5625 133.094 6.5625C134.021 6.5625 134.833 6.6875 135.531 6.9375C136.229 7.17708 136.844 7.57292 137.375 8.125C137.917 8.66667 138.328 9.41667 138.609 10.375C138.891 11.3333 139.031 12.4948 139.031 13.8594V23H135.156V13.5938C135.156 12.1771 134.932 11.1771 134.484 10.5938C134.047 10 133.318 9.70312 132.297 9.70312C131.922 9.70312 131.51 9.78646 131.062 9.95312C130.615 10.1198 130.177 10.3542 129.75 10.6562C129.333 10.9479 128.984 11.3385 128.703 11.8281C128.422 12.3073 128.281 12.8333 128.281 13.4062V23H124.406ZM151.125 23.3594C149.823 23.3594 148.63 23.1302 147.547 22.6719C146.474 22.2135 145.594 21.5938 144.906 20.8125C144.219 20.0312 143.688 19.1406 143.312 18.1406C142.938 17.1302 142.75 16.0729 142.75 14.9688C142.75 13.3854 143.073 11.9635 143.719 10.7031C144.375 9.43229 145.339 8.42708 146.609 7.6875C147.891 6.9375 149.38 6.5625 151.078 6.5625C153.599 6.5625 155.536 7.28125 156.891 8.71875L155.5 11.2188C154.344 10.1979 153.005 9.6875 151.484 9.6875C149.964 9.6875 148.797 10.1667 147.984 11.125C147.172 12.0833 146.766 13.3698 146.766 14.9844C146.766 16.5573 147.198 17.8281 148.062 18.7969C148.927 19.7552 150.109 20.2344 151.609 20.2344C151.818 20.2344 152.026 20.224 152.234 20.2031C152.443 20.1823 152.63 20.1562 152.797 20.125C152.964 20.0938 153.135 20.0521 153.312 20C153.5 19.9375 153.656 19.8854 153.781 19.8438C153.906 19.7917 154.047 19.724 154.203 19.6406C154.359 19.5573 154.479 19.4948 154.562 19.4531C154.656 19.401 154.771 19.3281 154.906 19.2344C155.042 19.1406 155.13 19.0781 155.172 19.0469C155.224 19.0156 155.307 18.9583 155.422 18.875C155.547 18.7812 155.615 18.7292 155.625 18.7188L156.797 21.5625C155.901 22.1875 155.005 22.6458 154.109 22.9375C153.214 23.2188 152.219 23.3594 151.125 23.3594ZM160.062 23V0.234375H163.938V9.04688C164.323 8.30729 165 7.70833 165.969 7.25C166.938 6.79167 167.859 6.5625 168.734 6.5625C169.474 6.5625 170.146 6.65104 170.75 6.82812C171.365 7.00521 171.88 7.23958 172.297 7.53125C172.714 7.82292 173.078 8.18229 173.391 8.60938C173.703 9.02604 173.948 9.45312 174.125 9.89062C174.302 10.3177 174.443 10.7917 174.547 11.3125C174.661 11.8333 174.734 12.3073 174.766 12.7344C174.807 13.1615 174.828 13.6094 174.828 14.0781V23H170.953V13.9531C170.953 12.4427 170.719 11.3594 170.25 10.7031C169.781 10.0365 169.078 9.70312 168.141 9.70312C167.078 9.70312 166.109 10.0729 165.234 10.8125C164.37 11.5417 163.938 12.3854 163.938 13.3438V23H160.062Z" fill="#38CB89"/>
</svg>
